# xmcd
#
# Track frame offsets:
#	150
#	12501
#	22466
#	38070
#	51496
#	65961
#	79587
#	97545
#	111518
#	127642
#	140713
#	152159
#	171856
#	185254
#	202690
#	217854
#	235329
#	250557
#	267324
#	281862
#
# Disc length: 4027 seconds
#
# Revision: 1
# Processed by: cddbd v1.5.1PL0 Copyright (c) Steve Scherf et al.
# Submitted via: audiograbber 1.83.01
#
DISCID=1c0fb914
DTITLE=Silverwings - That's Country (Antje and Charly Strauss)
DYEAR=2001
DGENRE=Pop
TTITLE0=Chuck Wagon
TTITLE1=Six Days On The Road
TTITLE2=Blanket On The Ground
TTITLE3=Smoke Along The Track
TTITLE4=Sweet Summer Lovin'
TTITLE5=Long Legged Guitar Pickin Man
TTITLE6=Across The Borderline
TTITLE7=Jackson
TTITLE8=Me And You And A Dog Named Boo
TTITLE9=Top Of The World
TTITLE10=Try A Little Kindness
TTITLE11=Ticket To Heaven
TTITLE12=There's A Guy Works Down The Chip Shop Swears He's Elvis
TTITLE13=Hello Stranger
TTITLE14=Down At The Twist And Shout
TTITLE15=If I Said (You Have A Beautiful Body)
TTITLE16=Tequila Sunrise
TTITLE17=Chattahoochee
TTITLE18=Will You Love Me Tomorrow
TTITLE19=Chuck Wagon (Remix)
EXTD=
EXTT0=
EXTT1=
EXTT2=
EXTT3=
EXTT4=
EXTT5=
EXTT6=
EXTT7=
EXTT8=
EXTT9=
EXTT10=
EXTT11=
EXTT12=
EXTT13=
EXTT14=
EXTT15=
EXTT16=
EXTT17=
EXTT18=
EXTT19=
PLAYORDER=
